<svg width="708" height="153" viewBox="0 0 708 153" fill="none" xmlns="http://www.w3.org/2000/svg">
<g clip-path="url(#clip0_5_313)">
<path d="M0 24C0 10.7452 10.7452 0 24 0H684C697.255 0 708 10.7452 708 24V129C708 142.255 697.255 153 684 153H24C10.7452 153 0 142.255 0 129V24Z" fill="white"/>
<path d="M56.4787 56.348C56.3764 55.3168 55.9375 54.5156 55.1619 53.9446C54.3864 53.3736 53.3338 53.0881 52.0043 53.0881C51.1009 53.0881 50.3381 53.2159 49.7159 53.4716C49.0938 53.7188 48.6165 54.0639 48.2841 54.5071C47.9602 54.9503 47.7983 55.4531 47.7983 56.0156C47.7813 56.4844 47.8793 56.8935 48.0923 57.2429C48.3139 57.5923 48.6165 57.8949 49 58.1506C49.3835 58.3977 49.8267 58.6151 50.3295 58.8026C50.8324 58.9815 51.3693 59.1349 51.9403 59.2628L54.2926 59.8253C55.4347 60.081 56.483 60.4219 57.4375 60.848C58.392 61.2741 59.2188 61.7983 59.9176 62.4205C60.6165 63.0426 61.1577 63.7756 61.5412 64.6193C61.9332 65.4631 62.1335 66.4304 62.142 67.5213C62.1335 69.1236 61.7244 70.5128 60.9148 71.6889C60.1136 72.8565 58.9545 73.7642 57.4375 74.4119C55.929 75.0511 54.1094 75.3707 51.9787 75.3707C49.8651 75.3707 48.0241 75.0469 46.456 74.3991C44.8963 73.7514 43.6776 72.7926 42.7997 71.5227C41.9304 70.2443 41.4744 68.6634 41.4318 66.7798H46.7884C46.848 67.6577 47.0994 68.3906 47.5426 68.9787C47.9943 69.5582 48.5952 69.9972 49.3452 70.2955C50.1037 70.5852 50.9602 70.7301 51.9148 70.7301C52.8523 70.7301 53.6662 70.5937 54.3565 70.321C55.0554 70.0483 55.5966 69.669 55.9801 69.1832C56.3636 68.6974 56.5554 68.1392 56.5554 67.5085C56.5554 66.9205 56.3807 66.4261 56.0312 66.0256C55.6903 65.625 55.1875 65.2841 54.5227 65.0028C53.8665 64.7216 53.0611 64.4659 52.1065 64.2358L49.2557 63.5199C47.0483 62.983 45.3054 62.1435 44.027 61.0014C42.7486 59.8594 42.1136 58.321 42.1222 56.3864C42.1136 54.8011 42.5355 53.4162 43.3878 52.2315C44.2486 51.0469 45.429 50.1222 46.929 49.4574C48.429 48.7926 50.1335 48.4602 52.0426 48.4602C53.9858 48.4602 55.6818 48.7926 57.1307 49.4574C58.5881 50.1222 59.7216 51.0469 60.5312 52.2315C61.3409 53.4162 61.7585 54.7884 61.7841 56.348H56.4787ZM74.892 75.3835C72.8721 75.3835 71.1335 74.9744 69.6761 74.1562C68.2272 73.3295 67.1108 72.1619 66.3267 70.6534C65.5426 69.1364 65.1505 67.3423 65.1505 65.2713C65.1505 63.2514 65.5426 61.4787 66.3267 59.9531C67.1108 58.4276 68.2144 57.2386 69.6377 56.3864C71.0696 55.5341 72.7485 55.108 74.6747 55.108C75.9701 55.108 77.1761 55.3168 78.2926 55.7344C79.4176 56.1435 80.3977 56.7614 81.2329 57.5881C82.0767 58.4148 82.7329 59.4545 83.2017 60.7074C83.6704 61.9517 83.9048 63.4091 83.9048 65.0795V66.5753H67.3238V63.2003H78.7784C78.7784 62.4162 78.6079 61.7216 78.267 61.1165C77.9261 60.5114 77.4531 60.0384 76.848 59.6974C76.2514 59.348 75.5568 59.1733 74.7642 59.1733C73.9375 59.1733 73.2045 59.3651 72.5653 59.7486C71.9346 60.1236 71.4403 60.6307 71.0823 61.2699C70.7244 61.9006 70.5412 62.6037 70.5326 63.3793V66.5881C70.5326 67.5597 70.7116 68.3991 71.0696 69.1065C71.436 69.8139 71.9517 70.3594 72.6164 70.7429C73.2812 71.1264 74.0696 71.3182 74.9815 71.3182C75.5866 71.3182 76.1406 71.233 76.6434 71.0625C77.1463 70.892 77.5767 70.6364 77.9346 70.2955C78.2926 69.9545 78.5653 69.5369 78.7528 69.0426L83.7897 69.375C83.534 70.5852 83.0099 71.642 82.2173 72.5455C81.4332 73.4403 80.419 74.1392 79.1747 74.642C77.9389 75.1364 76.5113 75.3835 74.892 75.3835ZM93.0848 48.8182V75H87.6388V48.8182H93.0848ZM106.576 75.3835C104.556 75.3835 102.818 74.9744 101.36 74.1562C99.9114 73.3295 98.795 72.1619 98.0109 70.6534C97.2268 69.1364 96.8347 67.3423 96.8347 65.2713C96.8347 63.2514 97.2268 61.4787 98.0109 59.9531C98.795 58.4276 99.8987 57.2386 101.322 56.3864C102.754 55.5341 104.433 55.108 106.359 55.108C107.654 55.108 108.86 55.3168 109.977 55.7344C111.102 56.1435 112.082 56.7614 112.917 57.5881C113.761 58.4148 114.417 59.4545 114.886 60.7074C115.355 61.9517 115.589 63.4091 115.589 65.0795V66.5753H99.008V63.2003H110.463C110.463 62.4162 110.292 61.7216 109.951 61.1165C109.61 60.5114 109.137 60.0384 108.532 59.6974C107.936 59.348 107.241 59.1733 106.448 59.1733C105.622 59.1733 104.889 59.3651 104.25 59.7486C103.619 60.1236 103.125 60.6307 102.767 61.2699C102.409 61.9006 102.225 62.6037 102.217 63.3793V66.5881C102.217 67.5597 102.396 68.3991 102.754 69.1065C103.12 69.8139 103.636 70.3594 104.301 70.7429C104.965 71.1264 105.754 71.3182 106.666 71.3182C107.271 71.3182 107.825 71.233 108.328 71.0625C108.83 70.892 109.261 70.6364 109.619 70.2955C109.977 69.9545 110.25 69.5369 110.437 69.0426L115.474 69.375C115.218 70.5852 114.694 71.642 113.902 72.5455C113.117 73.4403 112.103 74.1392 110.859 74.642C109.623 75.1364 108.196 75.3835 106.576 75.3835ZM128.195 75.3835C126.184 75.3835 124.454 74.9574 123.005 74.1051C121.564 73.2443 120.457 72.0511 119.681 70.5256C118.914 69 118.53 67.2443 118.53 65.2585C118.53 63.2472 118.918 61.483 119.694 59.9659C120.478 58.4403 121.59 57.2514 123.03 56.3991C124.471 55.5384 126.184 55.108 128.17 55.108C129.883 55.108 131.383 55.419 132.67 56.0412C133.957 56.6634 134.975 57.5369 135.725 58.6619C136.475 59.7869 136.888 61.108 136.965 62.625H131.826C131.681 61.6449 131.297 60.8565 130.675 60.2599C130.062 59.6548 129.256 59.3523 128.259 59.3523C127.415 59.3523 126.678 59.5824 126.047 60.0426C125.425 60.4943 124.939 61.1548 124.59 62.0241C124.241 62.8935 124.066 63.946 124.066 65.1818C124.066 66.4347 124.236 67.5 124.577 68.3778C124.927 69.2557 125.417 69.9247 126.047 70.3849C126.678 70.8452 127.415 71.0753 128.259 71.0753C128.881 71.0753 129.439 70.9474 129.934 70.6918C130.437 70.4361 130.85 70.0653 131.174 69.5795C131.506 69.0852 131.724 68.4929 131.826 67.8026H136.965C136.88 69.3026 136.471 70.6236 135.738 71.7656C135.013 72.8991 134.012 73.7855 132.733 74.4247C131.455 75.0639 129.942 75.3835 128.195 75.3835ZM151.076 55.3636V59.4545H139.251V55.3636H151.076ZM141.936 50.6591H147.382V68.9659C147.382 69.4687 147.459 69.8608 147.612 70.142C147.765 70.4148 147.978 70.6065 148.251 70.7173C148.532 70.8281 148.856 70.8835 149.223 70.8835C149.478 70.8835 149.734 70.8622 149.99 70.8196C150.246 70.7685 150.442 70.7301 150.578 70.7045L151.434 74.7571C151.162 74.8423 150.778 74.9403 150.284 75.0511C149.79 75.1705 149.189 75.2429 148.481 75.2685C147.169 75.3196 146.018 75.1449 145.03 74.7443C144.05 74.3437 143.287 73.7216 142.741 72.8778C142.196 72.0341 141.927 70.9687 141.936 69.6818V50.6591ZM187.478 61.9091C187.478 64.7642 186.937 67.1932 185.854 69.196C184.781 71.1989 183.315 72.7287 181.457 73.7855C179.607 74.8338 177.528 75.358 175.218 75.358C172.891 75.358 170.803 74.8295 168.954 73.7727C167.104 72.7159 165.643 71.1861 164.569 69.1832C163.495 67.1804 162.958 64.7557 162.958 61.9091C162.958 59.054 163.495 56.625 164.569 54.6222C165.643 52.6193 167.104 51.0937 168.954 50.0455C170.803 48.9886 172.891 48.4602 175.218 48.4602C177.528 48.4602 179.607 48.9886 181.457 50.0455C183.315 51.0937 184.781 52.6193 185.854 54.6222C186.937 56.625 187.478 59.054 187.478 61.9091ZM181.866 61.9091C181.866 60.0597 181.589 58.5 181.035 57.2301C180.489 55.9602 179.718 54.9972 178.721 54.3409C177.724 53.6847 176.556 53.3565 175.218 53.3565C173.88 53.3565 172.712 53.6847 171.715 54.3409C170.718 54.9972 169.943 55.9602 169.389 57.2301C168.843 58.5 168.57 60.0597 168.57 61.9091C168.57 63.7585 168.843 65.3182 169.389 66.5881C169.943 67.858 170.718 68.821 171.715 69.4773C172.712 70.1335 173.88 70.4616 175.218 70.4616C176.556 70.4616 177.724 70.1335 178.721 69.4773C179.718 68.821 180.489 67.858 181.035 66.5881C181.589 65.3182 181.866 63.7585 181.866 61.9091ZM191.759 75V48.8182H197.205V58.6619H197.371C197.609 58.1335 197.955 57.5966 198.406 57.0511C198.866 56.4972 199.463 56.0369 200.196 55.6705C200.938 55.2955 201.858 55.108 202.957 55.108C204.389 55.108 205.71 55.483 206.92 56.233C208.131 56.9744 209.098 58.0952 209.822 59.5952C210.547 61.0866 210.909 62.9574 210.909 65.2074C210.909 67.3977 210.555 69.2472 209.848 70.7557C209.149 72.2557 208.195 73.3935 206.984 74.169C205.783 74.9361 204.436 75.3196 202.945 75.3196C201.888 75.3196 200.989 75.1449 200.247 74.7955C199.514 74.446 198.913 74.0071 198.445 73.4787C197.976 72.9418 197.618 72.4006 197.371 71.8551H197.128V75H191.759ZM197.09 65.1818C197.09 66.3494 197.251 67.3679 197.575 68.2372C197.899 69.1065 198.368 69.7841 198.982 70.2699C199.595 70.7472 200.341 70.9858 201.219 70.9858C202.105 70.9858 202.855 70.7429 203.469 70.2571C204.082 69.7628 204.547 69.081 204.862 68.2116C205.186 67.3338 205.348 66.3239 205.348 65.1818C205.348 64.0483 205.19 63.0511 204.875 62.1903C204.56 61.3295 204.095 60.6562 203.482 60.1705C202.868 59.6847 202.114 59.4418 201.219 59.4418C200.332 59.4418 199.582 59.6761 198.969 60.1449C198.364 60.6136 197.899 61.2784 197.575 62.1392C197.251 63 197.09 64.0142 197.09 65.1818ZM214.723 55.3636H220.169V75.9716C220.169 77.4886 219.871 78.7159 219.274 79.6534C218.678 80.5909 217.821 81.277 216.705 81.7116C215.597 82.1463 214.271 82.3636 212.729 82.3636C212.541 82.3636 212.362 82.3594 212.192 82.3509C212.013 82.3509 211.825 82.3466 211.629 82.3381V78.081C211.774 78.0895 211.902 78.0938 212.013 78.0938C212.115 78.1023 212.226 78.1065 212.345 78.1065C213.223 78.1065 213.837 77.919 214.186 77.544C214.544 77.1776 214.723 76.6236 214.723 75.8821V55.3636ZM217.433 52.8324C216.632 52.8324 215.942 52.5639 215.362 52.027C214.783 51.4815 214.493 50.8295 214.493 50.071C214.493 49.321 214.783 48.6776 215.362 48.1406C215.942 47.5952 216.632 47.3224 217.433 47.3224C218.251 47.3224 218.946 47.5952 219.517 48.1406C220.097 48.6776 220.386 49.321 220.386 50.071C220.386 50.8295 220.097 51.4815 219.517 52.027C218.946 52.5639 218.251 52.8324 217.433 52.8324ZM233.66 75.3835C231.641 75.3835 229.902 74.9744 228.445 74.1562C226.996 73.3295 225.879 72.1619 225.095 70.6534C224.311 69.1364 223.919 67.3423 223.919 65.2713C223.919 63.2514 224.311 61.4787 225.095 59.9531C225.879 58.4276 226.983 57.2386 228.406 56.3864C229.838 55.5341 231.517 55.108 233.443 55.108C234.739 55.108 235.945 55.3168 237.061 55.7344C238.186 56.1435 239.166 56.7614 240.001 57.5881C240.845 58.4148 241.501 59.4545 241.97 60.7074C242.439 61.9517 242.673 63.4091 242.673 65.0795V66.5753H226.092V63.2003H237.547C237.547 62.4162 237.376 61.7216 237.035 61.1165C236.695 60.5114 236.222 60.0384 235.616 59.6974C235.02 59.348 234.325 59.1733 233.533 59.1733C232.706 59.1733 231.973 59.3651 231.334 59.7486C230.703 60.1236 230.209 60.6307 229.851 61.2699C229.493 61.9006 229.31 62.6037 229.301 63.3793V66.5881C229.301 67.5597 229.48 68.3991 229.838 69.1065C230.204 69.8139 230.72 70.3594 231.385 70.7429C232.05 71.1264 232.838 71.3182 233.75 71.3182C234.355 71.3182 234.909 71.233 235.412 71.0625C235.915 70.892 236.345 70.6364 236.703 70.2955C237.061 69.9545 237.334 69.5369 237.521 69.0426L242.558 69.375C242.302 70.5852 241.778 71.642 240.986 72.5455C240.202 73.4403 239.187 74.1392 237.943 74.642C236.707 75.1364 235.28 75.3835 233.66 75.3835ZM255.279 75.3835C253.268 75.3835 251.538 74.9574 250.089 74.1051C248.649 73.2443 247.541 72.0511 246.765 70.5256C245.998 69 245.615 67.2443 245.615 65.2585C245.615 63.2472 246.002 61.483 246.778 59.9659C247.562 58.4403 248.674 57.2514 250.115 56.3991C251.555 55.5384 253.268 55.108 255.254 55.108C256.967 55.108 258.467 55.419 259.754 56.0412C261.041 56.6634 262.059 57.5369 262.809 58.6619C263.559 59.7869 263.973 61.108 264.049 62.625H258.91C258.765 61.6449 258.382 60.8565 257.759 60.2599C257.146 59.6548 256.34 59.3523 255.343 59.3523C254.5 59.3523 253.762 59.5824 253.132 60.0426C252.509 60.4943 252.024 61.1548 251.674 62.0241C251.325 62.8935 251.15 63.946 251.15 65.1818C251.15 66.4347 251.321 67.5 251.661 68.3778C252.011 69.2557 252.501 69.9247 253.132 70.3849C253.762 70.8452 254.5 71.0753 255.343 71.0753C255.965 71.0753 256.524 70.9474 257.018 70.6918C257.521 70.4361 257.934 70.0653 258.258 69.5795C258.59 69.0852 258.808 68.4929 258.91 67.8026H264.049C263.964 69.3026 263.555 70.6236 262.822 71.7656C262.098 72.8991 261.096 73.7855 259.818 74.4247C258.539 75.0639 257.027 75.3835 255.279 75.3835ZM278.161 55.3636V59.4545H266.335V55.3636H278.161ZM269.02 50.6591H274.466V68.9659C274.466 69.4687 274.543 69.8608 274.696 70.142C274.85 70.4148 275.063 70.6065 275.335 70.7173C275.617 70.8281 275.941 70.8835 276.307 70.8835C276.563 70.8835 276.818 70.8622 277.074 70.8196C277.33 70.7685 277.526 70.7301 277.662 70.7045L278.519 74.7571C278.246 74.8423 277.862 74.9403 277.368 75.0511C276.874 75.1705 276.273 75.2429 275.566 75.2685C274.253 75.3196 273.102 75.1449 272.114 74.7443C271.134 74.3437 270.371 73.7216 269.825 72.8778C269.28 72.0341 269.012 70.9687 269.02 69.6818V50.6591Z" fill="#1F2937"/>
<path d="M290 62C290 54.268 296.268 48 304 48H373C380.732 48 387 54.268 387 62V62C387 69.732 380.732 76 373 76H304C296.268 76 290 69.732 290 62V62Z" fill="#FFE3E3"/>
<g clip-path="url(#clip1_5_313)">
<path d="M302.788 56.3263C302.352 55.8913 301.648 55.8913 301.212 56.3263L299.035 58.5043L302 61.4698L304.965 58.5043L302.787 56.3263H302.788ZM305.495 59.0345L302.531 62L305.497 64.9655L307.674 62.7867C308.109 62.3517 308.109 61.6475 307.674 61.2133L305.497 59.0345H305.495ZM304.965 65.495L302 62.531L299.035 65.4965L301.213 67.6745C301.648 68.1095 302.352 68.1095 302.787 67.6745L304.965 65.4965V65.495ZM298.505 64.9655L301.469 62L298.504 59.0345L296.326 61.2133C295.891 61.6483 295.891 62.3525 296.326 62.7867L298.504 64.9655H298.505Z" fill="#AE4B4B"/>
</g>
<path d="M314.696 66H313.298L316.439 57.2727H317.96L321.101 66H319.703L317.236 58.858H317.168L314.696 66ZM314.93 62.5824H319.464V63.6903H314.93V62.5824ZM323.593 62.1136V66H322.319V59.4545H323.542V60.5199H323.623C323.773 60.1733 324.009 59.8949 324.33 59.6847C324.654 59.4744 325.062 59.3693 325.553 59.3693C325.999 59.3693 326.39 59.4631 326.725 59.6506C327.06 59.8352 327.32 60.1108 327.505 60.4773C327.69 60.8437 327.782 61.2969 327.782 61.8366V66H326.508V61.9901C326.508 61.5156 326.384 61.1449 326.137 60.8778C325.89 60.608 325.55 60.473 325.119 60.473C324.823 60.473 324.56 60.5369 324.33 60.6648C324.103 60.7926 323.923 60.9801 323.789 61.2273C323.658 61.4716 323.593 61.767 323.593 62.1136ZM330.825 62.1136V66H329.551V59.4545H330.774V60.5199H330.855C331.005 60.1733 331.241 59.8949 331.562 59.6847C331.886 59.4744 332.294 59.3693 332.785 59.3693C333.231 59.3693 333.622 59.4631 333.957 59.6506C334.292 59.8352 334.552 60.1108 334.737 60.4773C334.921 60.8437 335.014 61.2969 335.014 61.8366V66H333.74V61.9901C333.74 61.5156 333.616 61.1449 333.369 60.8778C333.122 60.608 332.782 60.473 332.35 60.473C332.055 60.473 331.792 60.5369 331.562 60.6648C331.335 60.7926 331.154 60.9801 331.021 61.2273C330.89 61.4716 330.825 61.767 330.825 62.1136ZM339.54 66.1321C338.926 66.1321 338.391 65.9915 337.933 65.7102C337.476 65.429 337.121 65.0355 336.868 64.5298C336.615 64.0241 336.489 63.4332 336.489 62.7571C336.489 62.0781 336.615 61.4844 336.868 60.9759C337.121 60.4673 337.476 60.0724 337.933 59.7912C338.391 59.5099 338.926 59.3693 339.54 59.3693C340.153 59.3693 340.689 59.5099 341.146 59.7912C341.604 60.0724 341.959 60.4673 342.212 60.9759C342.464 61.4844 342.591 62.0781 342.591 62.7571C342.591 63.4332 342.464 64.0241 342.212 64.5298C341.959 65.0355 341.604 65.429 341.146 65.7102C340.689 65.9915 340.153 66.1321 339.54 66.1321ZM339.544 65.0625C339.942 65.0625 340.271 64.9574 340.533 64.7472C340.794 64.5369 340.987 64.2571 341.112 63.9077C341.24 63.5582 341.304 63.1733 341.304 62.7528C341.304 62.3352 341.24 61.9517 341.112 61.6023C340.987 61.25 340.794 60.9673 340.533 60.7543C340.271 60.5412 339.942 60.4347 339.544 60.4347C339.143 60.4347 338.811 60.5412 338.547 60.7543C338.285 60.9673 338.091 61.25 337.963 61.6023C337.838 61.9517 337.776 62.3352 337.776 62.7528C337.776 63.1733 337.838 63.5582 337.963 63.9077C338.091 64.2571 338.285 64.5369 338.547 64.7472C338.811 64.9574 339.143 65.0625 339.544 65.0625ZM347.128 59.4545V60.4773H343.553V59.4545H347.128ZM344.512 57.8864H345.786V64.0781C345.786 64.3253 345.823 64.5114 345.897 64.6364C345.971 64.7585 346.066 64.8423 346.182 64.8878C346.302 64.9304 346.431 64.9517 346.57 64.9517C346.673 64.9517 346.762 64.9446 346.839 64.9304C346.915 64.9162 346.975 64.9048 347.018 64.8963L347.248 65.9489C347.174 65.9773 347.069 66.0057 346.932 66.0341C346.796 66.0653 346.626 66.0824 346.421 66.0852C346.086 66.0909 345.773 66.0312 345.484 65.9062C345.194 65.7812 344.959 65.5881 344.78 65.3267C344.602 65.0653 344.512 64.7372 344.512 64.3423V57.8864ZM350.503 66.1449C350.088 66.1449 349.713 66.0682 349.378 65.9148C349.043 65.7585 348.777 65.5327 348.581 65.2372C348.388 64.9418 348.291 64.5795 348.291 64.1506C348.291 63.7812 348.362 63.4773 348.504 63.2386C348.646 63 348.838 62.8111 349.079 62.6719C349.321 62.5327 349.591 62.4276 349.889 62.3565C350.187 62.2855 350.491 62.2315 350.801 62.1946C351.193 62.1491 351.511 62.1122 351.756 62.0838C352 62.0526 352.177 62.0028 352.288 61.9347C352.399 61.8665 352.454 61.7557 352.454 61.6023V61.5724C352.454 61.2003 352.349 60.9119 352.139 60.7074C351.932 60.5028 351.622 60.4006 351.21 60.4006C350.781 60.4006 350.443 60.4957 350.196 60.6861C349.952 60.8736 349.783 61.0824 349.689 61.3125L348.491 61.0398C348.633 60.642 348.841 60.321 349.114 60.0767C349.389 59.8295 349.706 59.6506 350.064 59.5398C350.422 59.4261 350.798 59.3693 351.193 59.3693C351.454 59.3693 351.731 59.4006 352.024 59.4631C352.32 59.5227 352.595 59.6335 352.851 59.7955C353.109 59.9574 353.321 60.1889 353.486 60.4901C353.65 60.7884 353.733 61.1761 353.733 61.6534V66H352.489V65.1051H352.437C352.355 65.2699 352.231 65.4318 352.067 65.5909C351.902 65.75 351.69 65.8821 351.432 65.9872C351.173 66.0923 350.864 66.1449 350.503 66.1449ZM350.78 65.1222C351.132 65.1222 351.433 65.0526 351.683 64.9134C351.936 64.7741 352.128 64.5923 352.258 64.3679C352.392 64.1406 352.459 63.8977 352.459 63.6392V62.7955C352.413 62.8409 352.325 62.8835 352.195 62.9233C352.067 62.9602 351.92 62.9929 351.756 63.0213C351.591 63.0469 351.43 63.071 351.274 63.0938C351.118 63.1136 350.987 63.1307 350.882 63.1449C350.635 63.1761 350.409 63.2287 350.204 63.3026C350.003 63.3764 349.841 63.483 349.719 63.6222C349.599 63.7585 349.54 63.9403 349.54 64.1676C349.54 64.483 349.656 64.7216 349.889 64.8835C350.122 65.0426 350.419 65.1222 350.78 65.1222ZM358.545 59.4545V60.4773H354.97V59.4545H358.545ZM355.929 57.8864H357.203V64.0781C357.203 64.3253 357.24 64.5114 357.314 64.6364C357.388 64.7585 357.483 64.8423 357.599 64.8878C357.719 64.9304 357.848 64.9517 357.987 64.9517C358.089 64.9517 358.179 64.9446 358.256 64.9304C358.332 64.9162 358.392 64.9048 358.435 64.8963L358.665 65.9489C358.591 65.9773 358.486 66.0057 358.349 66.0341C358.213 66.0653 358.043 66.0824 357.838 66.0852C357.503 66.0909 357.19 66.0312 356.9 65.9062C356.611 65.7812 356.376 65.5881 356.197 65.3267C356.018 65.0653 355.929 64.7372 355.929 64.3423V57.8864ZM360.015 66V59.4545H361.289V66H360.015ZM360.658 58.4446C360.437 58.4446 360.246 58.3707 360.087 58.223C359.931 58.0724 359.853 57.8935 359.853 57.6861C359.853 57.4759 359.931 57.2969 360.087 57.1491C360.246 56.9986 360.437 56.9233 360.658 56.9233C360.88 56.9233 361.069 56.9986 361.225 57.1491C361.384 57.2969 361.464 57.4759 361.464 57.6861C361.464 57.8935 361.384 58.0724 361.225 58.223C361.069 58.3707 360.88 58.4446 360.658 58.4446ZM365.82 66.1321C365.207 66.1321 364.671 65.9915 364.214 65.7102C363.756 65.429 363.401 65.0355 363.148 64.5298C362.895 64.0241 362.769 63.4332 362.769 62.7571C362.769 62.0781 362.895 61.4844 363.148 60.9759C363.401 60.4673 363.756 60.0724 364.214 59.7912C364.671 59.5099 365.207 59.3693 365.82 59.3693C366.434 59.3693 366.969 59.5099 367.427 59.7912C367.884 60.0724 368.239 60.4673 368.492 60.9759C368.745 61.4844 368.871 62.0781 368.871 62.7571C368.871 63.4332 368.745 64.0241 368.492 64.5298C368.239 65.0355 367.884 65.429 367.427 65.7102C366.969 65.9915 366.434 66.1321 365.82 66.1321ZM365.824 65.0625C366.222 65.0625 366.552 64.9574 366.813 64.7472C367.074 64.5369 367.268 64.2571 367.393 63.9077C367.52 63.5582 367.584 63.1733 367.584 62.7528C367.584 62.3352 367.52 61.9517 367.393 61.6023C367.268 61.25 367.074 60.9673 366.813 60.7543C366.552 60.5412 366.222 60.4347 365.824 60.4347C365.424 60.4347 365.092 60.5412 364.827 60.7543C364.566 60.9673 364.371 61.25 364.243 61.6023C364.118 61.9517 364.056 62.3352 364.056 62.7528C364.056 63.1733 364.118 63.5582 364.243 63.9077C364.371 64.2571 364.566 64.5369 364.827 64.7472C365.092 64.9574 365.424 65.0625 365.824 65.0625ZM371.628 62.1136V66H370.354V59.4545H371.577V60.5199H371.658C371.808 60.1733 372.044 59.8949 372.365 59.6847C372.689 59.4744 373.096 59.3693 373.588 59.3693C374.034 59.3693 374.425 59.4631 374.76 59.6506C375.095 59.8352 375.355 60.1108 375.54 60.4773C375.724 60.8437 375.817 61.2969 375.817 61.8366V66H374.542V61.9901C374.542 61.5156 374.419 61.1449 374.172 60.8778C373.925 60.608 373.585 60.473 373.153 60.473C372.858 60.473 372.595 60.5369 372.365 60.6648C372.138 60.7926 371.957 60.9801 371.824 61.2273C371.693 61.4716 371.628 61.767 371.628 62.1136Z" fill="#AE4B4B"/>
<path d="M41.2784 109V97.3636H48.5739V98.875H43.0341V102.42H48.1932V103.926H43.0341V107.489H48.642V109H41.2784ZM52.5615 103.818V109H50.8627V100.273H52.4934V101.693H52.6013C52.8021 101.231 53.1165 100.86 53.5445 100.58C53.9763 100.299 54.5199 100.159 55.1752 100.159C55.7699 100.159 56.2907 100.284 56.7377 100.534C57.1846 100.78 57.5312 101.148 57.7774 101.636C58.0237 102.125 58.1468 102.729 58.1468 103.449V109H56.4479V103.653C56.4479 103.021 56.2831 102.527 55.9536 102.17C55.624 101.811 55.1714 101.631 54.5956 101.631C54.2017 101.631 53.8513 101.716 53.5445 101.886C53.2415 102.057 53.0009 102.307 52.8229 102.636C52.6487 102.962 52.5615 103.356 52.5615 103.818ZM63.0449 109.193C62.4919 109.193 61.9919 109.091 61.5449 108.886C61.098 108.678 60.7438 108.377 60.4824 107.983C60.2249 107.589 60.0961 107.106 60.0961 106.534C60.0961 106.042 60.1908 105.636 60.3802 105.318C60.5696 105 60.8252 104.748 61.1472 104.562C61.4692 104.377 61.829 104.237 62.2268 104.142C62.6245 104.047 63.0298 103.975 63.4427 103.926C63.9654 103.866 64.3896 103.816 64.7154 103.778C65.0412 103.737 65.2779 103.67 65.4256 103.58C65.5734 103.489 65.6472 103.341 65.6472 103.136V103.097C65.6472 102.6 65.5071 102.216 65.2268 101.943C64.9502 101.67 64.5374 101.534 63.9881 101.534C63.4162 101.534 62.9654 101.661 62.6359 101.915C62.3101 102.165 62.0847 102.443 61.9597 102.75L60.3631 102.386C60.5525 101.856 60.829 101.428 61.1927 101.102C61.5601 100.773 61.9824 100.534 62.4597 100.386C62.937 100.235 63.4389 100.159 63.9654 100.159C64.3139 100.159 64.6832 100.201 65.0734 100.284C65.4673 100.364 65.8347 100.511 66.1756 100.727C66.5203 100.943 66.8025 101.252 67.0222 101.653C67.2419 102.051 67.3518 102.568 67.3518 103.205V109H65.6927V107.807H65.6245C65.5146 108.027 65.3499 108.242 65.1302 108.455C64.9105 108.667 64.6283 108.843 64.2836 108.983C63.9389 109.123 63.526 109.193 63.0449 109.193ZM63.4143 107.83C63.884 107.83 64.2855 107.737 64.6188 107.551C64.9559 107.366 65.2116 107.123 65.3859 106.824C65.5639 106.521 65.6529 106.197 65.6529 105.852V104.727C65.5923 104.788 65.4749 104.845 65.3006 104.898C65.1302 104.947 64.9351 104.991 64.7154 105.028C64.4957 105.062 64.2817 105.095 64.0734 105.125C63.865 105.152 63.6908 105.174 63.5506 105.193C63.2211 105.235 62.9199 105.305 62.6472 105.403C62.3783 105.502 62.1624 105.644 61.9995 105.83C61.8404 106.011 61.7609 106.254 61.7609 106.557C61.7609 106.977 61.9162 107.295 62.2268 107.511C62.5374 107.723 62.9332 107.83 63.4143 107.83ZM69.8309 109V97.3636H71.5298V101.688H71.632C71.7305 101.506 71.8726 101.295 72.0582 101.057C72.2438 100.818 72.5014 100.61 72.8309 100.432C73.1605 100.25 73.5961 100.159 74.1377 100.159C74.8423 100.159 75.4711 100.337 76.0241 100.693C76.5771 101.049 77.0108 101.562 77.3252 102.233C77.6434 102.903 77.8025 103.71 77.8025 104.653C77.8025 105.597 77.6453 106.405 77.3309 107.08C77.0165 107.75 76.5847 108.267 76.0355 108.631C75.4862 108.991 74.8593 109.17 74.1548 109.17C73.6245 109.17 73.1908 109.081 72.8536 108.903C72.5203 108.725 72.2589 108.517 72.0695 108.278C71.8802 108.04 71.7343 107.828 71.632 107.642H71.49V109H69.8309ZM71.4957 104.636C71.4957 105.25 71.5847 105.788 71.7627 106.25C71.9408 106.712 72.1983 107.074 72.5355 107.335C72.8726 107.593 73.2855 107.722 73.7741 107.722C74.2817 107.722 74.7059 107.587 75.0468 107.318C75.3877 107.045 75.6453 106.676 75.8195 106.21C75.9976 105.744 76.0866 105.22 76.0866 104.636C76.0866 104.061 75.9995 103.544 75.8252 103.085C75.6548 102.627 75.3972 102.265 75.0525 102C74.7116 101.735 74.2855 101.602 73.7741 101.602C73.2817 101.602 72.865 101.729 72.5241 101.983C72.187 102.237 71.9313 102.591 71.757 103.045C71.5828 103.5 71.4957 104.03 71.4957 104.636ZM81.489 97.3636V109H79.7902V97.3636H81.489ZM87.6159 109.176C86.7561 109.176 86.0155 108.992 85.3943 108.625C84.7769 108.254 84.2996 107.733 83.9625 107.062C83.6292 106.388 83.4625 105.598 83.4625 104.693C83.4625 103.799 83.6292 103.011 83.9625 102.33C84.2996 101.648 84.7693 101.116 85.3716 100.733C85.9777 100.35 86.686 100.159 87.4966 100.159C87.989 100.159 88.4663 100.241 88.9284 100.403C89.3905 100.566 89.8053 100.822 90.1727 101.17C90.5402 101.519 90.8299 101.972 91.042 102.528C91.2542 103.081 91.3602 103.754 91.3602 104.545V105.148H84.4227V103.875H89.6955C89.6955 103.428 89.6045 103.032 89.4227 102.688C89.2409 102.339 88.9852 102.064 88.6557 101.864C88.3299 101.663 87.9474 101.562 87.508 101.562C87.0307 101.562 86.614 101.68 86.258 101.915C85.9057 102.146 85.633 102.449 85.4398 102.824C85.2504 103.195 85.1557 103.598 85.1557 104.034V105.028C85.1557 105.612 85.258 106.108 85.4625 106.517C85.6708 106.926 85.9606 107.239 86.3318 107.455C86.703 107.667 87.1367 107.773 87.633 107.773C87.9549 107.773 88.2485 107.727 88.5136 107.636C88.7788 107.542 89.008 107.402 89.2011 107.216C89.3943 107.03 89.542 106.801 89.6443 106.528L91.2523 106.818C91.1235 107.292 90.8924 107.706 90.5591 108.062C90.2295 108.415 89.8148 108.689 89.3148 108.886C88.8186 109.08 88.2523 109.176 87.6159 109.176ZM101.316 109.176C100.498 109.176 99.7835 108.989 99.1736 108.614C98.5638 108.239 98.0903 107.714 97.7532 107.04C97.4161 106.366 97.2475 105.578 97.2475 104.676C97.2475 103.771 97.4161 102.979 97.7532 102.301C98.0903 101.623 98.5638 101.097 99.1736 100.722C99.7835 100.347 100.498 100.159 101.316 100.159C102.134 100.159 102.848 100.347 103.458 100.722C104.068 101.097 104.541 101.623 104.878 102.301C105.215 102.979 105.384 103.771 105.384 104.676C105.384 105.578 105.215 106.366 104.878 107.04C104.541 107.714 104.068 108.239 103.458 108.614C102.848 108.989 102.134 109.176 101.316 109.176ZM101.321 107.75C101.852 107.75 102.291 107.61 102.64 107.33C102.988 107.049 103.246 106.676 103.412 106.21C103.583 105.744 103.668 105.231 103.668 104.67C103.668 104.114 103.583 103.602 103.412 103.136C103.246 102.667 102.988 102.29 102.64 102.006C102.291 101.722 101.852 101.58 101.321 101.58C100.787 101.58 100.344 101.722 99.9918 102.006C99.6433 102.29 99.3839 102.667 99.2134 103.136C99.0467 103.602 98.9634 104.114 98.9634 104.67C98.9634 105.231 99.0467 105.744 99.2134 106.21C99.3839 106.676 99.6433 107.049 99.9918 107.33C100.344 107.61 100.787 107.75 101.321 107.75ZM107.36 109V100.273H109.002V101.659H109.093C109.252 101.189 109.533 100.82 109.934 100.551C110.339 100.278 110.798 100.142 111.309 100.142C111.415 100.142 111.54 100.146 111.684 100.153C111.832 100.161 111.947 100.17 112.031 100.182V101.807C111.962 101.788 111.841 101.767 111.667 101.744C111.493 101.718 111.319 101.705 111.144 101.705C110.743 101.705 110.385 101.79 110.07 101.96C109.76 102.127 109.514 102.36 109.332 102.659C109.15 102.955 109.059 103.292 109.059 103.67V109H107.36ZM121.799 109H118.032V97.3636H121.918C123.058 97.3636 124.037 97.5966 124.855 98.0625C125.674 98.5246 126.3 99.1894 126.736 100.057C127.175 100.92 127.395 101.956 127.395 103.165C127.395 104.377 127.174 105.419 126.73 106.29C126.291 107.161 125.655 107.831 124.821 108.301C123.988 108.767 122.98 109 121.799 109ZM119.787 107.466H121.702C122.588 107.466 123.325 107.299 123.912 106.966C124.499 106.629 124.939 106.142 125.23 105.506C125.522 104.866 125.668 104.085 125.668 103.165C125.668 102.252 125.522 101.477 125.23 100.841C124.943 100.205 124.513 99.7216 123.941 99.392C123.369 99.0625 122.658 98.8977 121.81 98.8977H119.787V107.466ZM129.522 109V100.273H131.221V109H129.522ZM130.38 98.9261C130.085 98.9261 129.831 98.8277 129.619 98.6307C129.41 98.4299 129.306 98.1913 129.306 97.9148C129.306 97.6345 129.41 97.3958 129.619 97.1989C129.831 96.9981 130.085 96.8977 130.38 96.8977C130.675 96.8977 130.927 96.9981 131.136 97.1989C131.348 97.3958 131.454 97.6345 131.454 97.9148C131.454 98.1913 131.348 98.4299 131.136 98.6307C130.927 98.8277 130.675 98.9261 130.38 98.9261ZM140.126 102.403L138.586 102.676C138.522 102.479 138.42 102.292 138.28 102.114C138.143 101.936 137.958 101.79 137.723 101.676C137.488 101.562 137.194 101.506 136.842 101.506C136.361 101.506 135.96 101.614 135.638 101.83C135.316 102.042 135.155 102.316 135.155 102.653C135.155 102.945 135.263 103.18 135.478 103.358C135.694 103.536 136.043 103.682 136.524 103.795L137.91 104.114C138.713 104.299 139.312 104.585 139.706 104.972C140.1 105.358 140.297 105.86 140.297 106.477C140.297 107 140.145 107.466 139.842 107.875C139.543 108.28 139.124 108.598 138.586 108.83C138.052 109.061 137.433 109.176 136.728 109.176C135.751 109.176 134.954 108.968 134.336 108.551C133.719 108.131 133.34 107.534 133.2 106.761L134.842 106.511C134.944 106.939 135.155 107.263 135.473 107.483C135.791 107.699 136.206 107.807 136.717 107.807C137.274 107.807 137.719 107.691 138.052 107.46C138.386 107.225 138.552 106.939 138.552 106.602C138.552 106.33 138.45 106.1 138.246 105.915C138.045 105.729 137.736 105.589 137.319 105.494L135.842 105.17C135.028 104.985 134.425 104.689 134.035 104.284C133.649 103.879 133.456 103.366 133.456 102.744C133.456 102.229 133.6 101.778 133.888 101.392C134.175 101.006 134.573 100.705 135.081 100.489C135.588 100.269 136.17 100.159 136.825 100.159C137.768 100.159 138.511 100.364 139.052 100.773C139.594 101.178 139.952 101.722 140.126 102.403ZM144.784 109.193C144.231 109.193 143.731 109.091 143.284 108.886C142.837 108.678 142.483 108.377 142.222 107.983C141.964 107.589 141.835 107.106 141.835 106.534C141.835 106.042 141.93 105.636 142.12 105.318C142.309 105 142.565 104.748 142.887 104.562C143.209 104.377 143.568 104.237 143.966 104.142C144.364 104.047 144.769 103.975 145.182 103.926C145.705 103.866 146.129 103.816 146.455 103.778C146.781 103.737 147.017 103.67 147.165 103.58C147.313 103.489 147.387 103.341 147.387 103.136V103.097C147.387 102.6 147.246 102.216 146.966 101.943C146.69 101.67 146.277 101.534 145.728 101.534C145.156 101.534 144.705 101.661 144.375 101.915C144.049 102.165 143.824 102.443 143.699 102.75L142.103 102.386C142.292 101.856 142.568 101.428 142.932 101.102C143.299 100.773 143.722 100.534 144.199 100.386C144.676 100.235 145.178 100.159 145.705 100.159C146.053 100.159 146.423 100.201 146.813 100.284C147.207 100.364 147.574 100.511 147.915 100.727C148.26 100.943 148.542 101.252 148.762 101.653C148.981 102.051 149.091 102.568 149.091 103.205V109H147.432V107.807H147.364C147.254 108.027 147.089 108.242 146.87 108.455C146.65 108.667 146.368 108.843 146.023 108.983C145.678 109.123 145.265 109.193 144.784 109.193ZM145.154 107.83C145.623 107.83 146.025 107.737 146.358 107.551C146.695 107.366 146.951 107.123 147.125 106.824C147.303 106.521 147.392 106.197 147.392 105.852V104.727C147.332 104.788 147.214 104.845 147.04 104.898C146.87 104.947 146.674 104.991 146.455 105.028C146.235 105.062 146.021 105.095 145.813 105.125C145.604 105.152 145.43 105.174 145.29 105.193C144.96 105.235 144.659 105.305 144.387 105.403C144.118 105.502 143.902 105.644 143.739 105.83C143.58 106.011 143.5 106.254 143.5 106.557C143.5 106.977 143.656 107.295 143.966 107.511C144.277 107.723 144.673 107.83 145.154 107.83ZM151.57 109V97.3636H153.269V101.688H153.371C153.47 101.506 153.612 101.295 153.798 101.057C153.983 100.818 154.241 100.61 154.57 100.432C154.9 100.25 155.335 100.159 155.877 100.159C156.582 100.159 157.21 100.337 157.763 100.693C158.316 101.049 158.75 101.562 159.065 102.233C159.383 102.903 159.542 103.71 159.542 104.653C159.542 105.597 159.385 106.405 159.07 107.08C158.756 107.75 158.324 108.267 157.775 108.631C157.226 108.991 156.599 109.17 155.894 109.17C155.364 109.17 154.93 109.081 154.593 108.903C154.26 108.725 153.998 108.517 153.809 108.278C153.62 108.04 153.474 107.828 153.371 107.642H153.229V109H151.57ZM153.235 104.636C153.235 105.25 153.324 105.788 153.502 106.25C153.68 106.712 153.938 107.074 154.275 107.335C154.612 107.593 155.025 107.722 155.513 107.722C156.021 107.722 156.445 107.587 156.786 107.318C157.127 107.045 157.385 106.676 157.559 106.21C157.737 105.744 157.826 105.22 157.826 104.636C157.826 104.061 157.739 103.544 157.565 103.085C157.394 102.627 157.137 102.265 156.792 102C156.451 101.735 156.025 101.602 155.513 101.602C155.021 101.602 154.604 101.729 154.263 101.983C153.926 102.237 153.671 102.591 153.496 103.045C153.322 103.5 153.235 104.03 153.235 104.636ZM163.228 97.3636V109H161.53V97.3636H163.228ZM169.355 109.176C168.495 109.176 167.755 108.992 167.134 108.625C166.516 108.254 166.039 107.733 165.702 107.062C165.369 106.388 165.202 105.598 165.202 104.693C165.202 103.799 165.369 103.011 165.702 102.33C166.039 101.648 166.509 101.116 167.111 100.733C167.717 100.35 168.425 100.159 169.236 100.159C169.728 100.159 170.206 100.241 170.668 100.403C171.13 100.566 171.545 100.822 171.912 101.17C172.28 101.519 172.569 101.972 172.781 102.528C172.994 103.081 173.1 103.754 173.1 104.545V105.148H166.162V103.875H171.435C171.435 103.428 171.344 103.032 171.162 102.688C170.98 102.339 170.725 102.064 170.395 101.864C170.069 101.663 169.687 101.562 169.247 101.562C168.77 101.562 168.353 101.68 167.997 101.915C167.645 102.146 167.372 102.449 167.179 102.824C166.99 103.195 166.895 103.598 166.895 104.034V105.028C166.895 105.612 166.997 106.108 167.202 106.517C167.41 106.926 167.7 107.239 168.071 107.455C168.442 107.667 168.876 107.773 169.372 107.773C169.694 107.773 169.988 107.727 170.253 107.636C170.518 107.542 170.747 107.402 170.941 107.216C171.134 107.03 171.281 106.801 171.384 106.528L172.992 106.818C172.863 107.292 172.632 107.706 172.298 108.062C171.969 108.415 171.554 108.689 171.054 108.886C170.558 109.08 169.992 109.176 169.355 109.176ZM183.453 100.273V101.636H178.686V100.273H183.453ZM179.964 98.1818H181.663V106.438C181.663 106.767 181.712 107.015 181.811 107.182C181.909 107.345 182.036 107.456 182.191 107.517C182.351 107.574 182.523 107.602 182.708 107.602C182.845 107.602 182.964 107.593 183.066 107.574C183.169 107.555 183.248 107.54 183.305 107.528L183.612 108.932C183.513 108.97 183.373 109.008 183.191 109.045C183.01 109.087 182.782 109.11 182.51 109.114C182.063 109.121 181.646 109.042 181.26 108.875C180.873 108.708 180.561 108.451 180.322 108.102C180.083 107.754 179.964 107.316 179.964 106.79V98.1818ZM187.298 103.818V109H185.6V97.3636H187.276V101.693H187.384C187.588 101.223 187.901 100.85 188.321 100.574C188.742 100.297 189.291 100.159 189.969 100.159C190.567 100.159 191.09 100.282 191.537 100.528C191.988 100.775 192.336 101.142 192.583 101.631C192.833 102.116 192.958 102.722 192.958 103.449V109H191.259V103.653C191.259 103.013 191.094 102.517 190.764 102.165C190.435 101.809 189.976 101.631 189.389 101.631C188.988 101.631 188.628 101.716 188.31 101.886C187.995 102.057 187.747 102.307 187.565 102.636C187.387 102.962 187.298 103.356 187.298 103.818ZM199.066 109.176C198.206 109.176 197.466 108.992 196.844 108.625C196.227 108.254 195.75 107.733 195.413 107.062C195.079 106.388 194.913 105.598 194.913 104.693C194.913 103.799 195.079 103.011 195.413 102.33C195.75 101.648 196.219 101.116 196.822 100.733C197.428 100.35 198.136 100.159 198.947 100.159C199.439 100.159 199.916 100.241 200.378 100.403C200.841 100.566 201.255 100.822 201.623 101.17C201.99 101.519 202.28 101.972 202.492 102.528C202.704 103.081 202.81 103.754 202.81 104.545V105.148H195.873V103.875H201.145C201.145 103.428 201.055 103.032 200.873 102.688C200.691 102.339 200.435 102.064 200.106 101.864C199.78 101.663 199.397 101.562 198.958 101.562C198.481 101.562 198.064 101.68 197.708 101.915C197.356 102.146 197.083 102.449 196.89 102.824C196.7 103.195 196.606 103.598 196.606 104.034V105.028C196.606 105.612 196.708 106.108 196.913 106.517C197.121 106.926 197.411 107.239 197.782 107.455C198.153 107.667 198.587 107.773 199.083 107.773C199.405 107.773 199.698 107.727 199.964 107.636C200.229 107.542 200.458 107.402 200.651 107.216C200.844 107.03 200.992 106.801 201.094 106.528L202.702 106.818C202.573 107.292 202.342 107.706 202.009 108.062C201.68 108.415 201.265 108.689 200.765 108.886C200.269 109.08 199.702 109.176 199.066 109.176ZM212.766 109.176C211.947 109.176 211.233 108.989 210.624 108.614C210.014 108.239 209.54 107.714 209.203 107.04C208.866 106.366 208.697 105.578 208.697 104.676C208.697 103.771 208.866 102.979 209.203 102.301C209.54 101.623 210.014 101.097 210.624 100.722C211.233 100.347 211.947 100.159 212.766 100.159C213.584 100.159 214.298 100.347 214.908 100.722C215.518 101.097 215.991 101.623 216.328 102.301C216.665 102.979 216.834 103.771 216.834 104.676C216.834 105.578 216.665 106.366 216.328 107.04C215.991 107.714 215.518 108.239 214.908 108.614C214.298 108.989 213.584 109.176 212.766 109.176ZM212.771 107.75C213.302 107.75 213.741 107.61 214.09 107.33C214.438 107.049 214.696 106.676 214.862 106.21C215.033 105.744 215.118 105.231 215.118 104.67C215.118 104.114 215.033 103.602 214.862 103.136C214.696 102.667 214.438 102.29 214.09 102.006C213.741 101.722 213.302 101.58 212.771 101.58C212.237 101.58 211.794 101.722 211.442 102.006C211.093 102.29 210.834 102.667 210.663 103.136C210.497 103.602 210.413 104.114 210.413 104.67C210.413 105.231 210.497 105.744 210.663 106.21C210.834 106.676 211.093 107.049 211.442 107.33C211.794 107.61 212.237 107.75 212.771 107.75ZM218.947 109V97.3636H220.645V101.688H220.748C220.846 101.506 220.988 101.295 221.174 101.057C221.359 100.818 221.617 100.61 221.947 100.432C222.276 100.25 222.712 100.159 223.253 100.159C223.958 100.159 224.587 100.337 225.14 100.693C225.693 101.049 226.126 101.562 226.441 102.233C226.759 102.903 226.918 103.71 226.918 104.653C226.918 105.597 226.761 106.405 226.447 107.08C226.132 107.75 225.7 108.267 225.151 108.631C224.602 108.991 223.975 109.17 223.27 109.17C222.74 109.17 222.306 109.081 221.969 108.903C221.636 108.725 221.375 108.517 221.185 108.278C220.996 108.04 220.85 107.828 220.748 107.642H220.606V109H218.947ZM220.611 104.636C220.611 105.25 220.7 105.788 220.878 106.25C221.056 106.712 221.314 107.074 221.651 107.335C221.988 107.593 222.401 107.722 222.89 107.722C223.397 107.722 223.822 107.587 224.162 107.318C224.503 107.045 224.761 106.676 224.935 106.21C225.113 105.744 225.202 105.22 225.202 104.636C225.202 104.061 225.115 103.544 224.941 103.085C224.77 102.627 224.513 102.265 224.168 102C223.827 101.735 223.401 101.602 222.89 101.602C222.397 101.602 221.981 101.729 221.64 101.983C221.303 102.237 221.047 102.591 220.873 103.045C220.698 103.5 220.611 104.03 220.611 104.636ZM228.906 100.273H230.605V109.568C230.605 110.152 230.499 110.644 230.286 111.045C230.078 111.447 229.768 111.752 229.355 111.96C228.946 112.169 228.44 112.273 227.838 112.273C227.777 112.273 227.72 112.273 227.667 112.273C227.61 112.273 227.552 112.271 227.491 112.267V110.807C227.544 110.807 227.591 110.807 227.633 110.807C227.671 110.807 227.715 110.807 227.764 110.807C228.165 110.807 228.455 110.699 228.633 110.483C228.815 110.271 228.906 109.962 228.906 109.557V100.273ZM229.747 98.9261C229.451 98.9261 229.197 98.8277 228.985 98.6307C228.777 98.4299 228.673 98.1913 228.673 97.9148C228.673 97.6345 228.777 97.3958 228.985 97.1989C229.197 96.9981 229.451 96.8977 229.747 96.8977C230.042 96.8977 230.294 96.9981 230.502 97.1989C230.715 97.3958 230.821 97.6345 230.821 97.9148C230.821 98.1913 230.715 98.4299 230.502 98.6307C230.294 98.8277 230.042 98.9261 229.747 98.9261ZM236.732 109.176C235.872 109.176 235.131 108.992 234.51 108.625C233.893 108.254 233.415 107.733 233.078 107.062C232.745 106.388 232.578 105.598 232.578 104.693C232.578 103.799 232.745 103.011 233.078 102.33C233.415 101.648 233.885 101.116 234.487 100.733C235.093 100.35 235.802 100.159 236.612 100.159C237.105 100.159 237.582 100.241 238.044 100.403C238.506 100.566 238.921 100.822 239.288 101.17C239.656 101.519 239.946 101.972 240.158 102.528C240.37 103.081 240.476 103.754 240.476 104.545V105.148H233.538V103.875H238.811C238.811 103.428 238.72 103.032 238.538 102.688C238.357 102.339 238.101 102.064 237.771 101.864C237.446 101.663 237.063 101.562 236.624 101.562C236.146 101.562 235.73 101.68 235.374 101.915C235.021 102.146 234.749 102.449 234.555 102.824C234.366 103.195 234.271 103.598 234.271 104.034V105.028C234.271 105.612 234.374 106.108 234.578 106.517C234.786 106.926 235.076 107.239 235.447 107.455C235.819 107.667 236.252 107.773 236.749 107.773C237.071 107.773 237.364 107.727 237.629 107.636C237.894 107.542 238.124 107.402 238.317 107.216C238.51 107.03 238.658 106.801 238.76 106.528L240.368 106.818C240.239 107.292 240.008 107.706 239.675 108.062C239.345 108.415 238.93 108.689 238.43 108.886C237.934 109.08 237.368 109.176 236.732 109.176ZM246.117 109.176C245.272 109.176 244.545 108.985 243.935 108.602C243.329 108.216 242.863 107.684 242.537 107.006C242.212 106.328 242.049 105.551 242.049 104.676C242.049 103.79 242.215 103.008 242.549 102.33C242.882 101.648 243.352 101.116 243.958 100.733C244.564 100.35 245.278 100.159 246.1 100.159C246.763 100.159 247.354 100.282 247.873 100.528C248.392 100.771 248.81 101.112 249.128 101.551C249.45 101.991 249.642 102.504 249.702 103.091H248.049C247.958 102.682 247.75 102.33 247.424 102.034C247.102 101.739 246.67 101.591 246.128 101.591C245.655 101.591 245.24 101.716 244.884 101.966C244.532 102.212 244.257 102.564 244.06 103.023C243.863 103.477 243.765 104.015 243.765 104.636C243.765 105.273 243.861 105.822 244.054 106.284C244.248 106.746 244.52 107.104 244.873 107.358C245.229 107.612 245.647 107.739 246.128 107.739C246.45 107.739 246.742 107.68 247.003 107.562C247.268 107.441 247.49 107.269 247.668 107.045C247.85 106.822 247.977 106.553 248.049 106.239H249.702C249.642 106.803 249.458 107.307 249.151 107.75C248.844 108.193 248.433 108.542 247.918 108.795C247.407 109.049 246.806 109.176 246.117 109.176ZM255.673 100.273V101.636H250.906V100.273H255.673ZM252.184 98.1818H253.883V106.438C253.883 106.767 253.932 107.015 254.031 107.182C254.129 107.345 254.256 107.456 254.411 107.517C254.571 107.574 254.743 107.602 254.928 107.602C255.065 107.602 255.184 107.593 255.286 107.574C255.389 107.555 255.468 107.54 255.525 107.528L255.832 108.932C255.733 108.97 255.593 109.008 255.411 109.045C255.23 109.087 255.002 109.11 254.73 109.114C254.283 109.121 253.866 109.042 253.48 108.875C253.093 108.708 252.781 108.451 252.542 108.102C252.303 107.754 252.184 107.316 252.184 106.79V98.1818ZM264.031 102.403L262.491 102.676C262.427 102.479 262.325 102.292 262.185 102.114C262.048 101.936 261.863 101.79 261.628 101.676C261.393 101.562 261.099 101.506 260.747 101.506C260.266 101.506 259.865 101.614 259.543 101.83C259.221 102.042 259.06 102.316 259.06 102.653C259.06 102.945 259.168 103.18 259.383 103.358C259.599 103.536 259.948 103.682 260.429 103.795L261.815 104.114C262.618 104.299 263.217 104.585 263.611 104.972C264.005 105.358 264.202 105.86 264.202 106.477C264.202 107 264.05 107.466 263.747 107.875C263.448 108.28 263.029 108.598 262.491 108.83C261.957 109.061 261.338 109.176 260.633 109.176C259.656 109.176 258.859 108.968 258.241 108.551C257.624 108.131 257.245 107.534 257.105 106.761L258.747 106.511C258.849 106.939 259.06 107.263 259.378 107.483C259.696 107.699 260.111 107.807 260.622 107.807C261.179 107.807 261.624 107.691 261.957 107.46C262.291 107.225 262.457 106.939 262.457 106.602C262.457 106.33 262.355 106.1 262.151 105.915C261.95 105.729 261.641 105.589 261.224 105.494L259.747 105.17C258.933 104.985 258.33 104.689 257.94 104.284C257.554 103.879 257.361 103.366 257.361 102.744C257.361 102.229 257.505 101.778 257.793 101.392C258.08 101.006 258.478 100.705 258.986 100.489C259.493 100.269 260.075 100.159 260.73 100.159C261.673 100.159 262.416 100.364 262.957 100.773C263.499 101.178 263.857 101.722 264.031 102.403ZM271.538 112.273C271.284 112.273 271.053 112.252 270.845 112.21C270.636 112.172 270.481 112.131 270.379 112.085L270.788 110.693C271.098 110.777 271.375 110.813 271.617 110.801C271.86 110.79 272.074 110.699 272.259 110.528C272.449 110.358 272.615 110.08 272.759 109.693L272.97 109.114L269.776 100.273H271.595L273.805 107.045H273.896L276.106 100.273H277.93L274.333 110.165C274.167 110.619 273.954 111.004 273.697 111.318C273.439 111.636 273.132 111.875 272.776 112.034C272.42 112.193 272.007 112.273 271.538 112.273ZM282.986 109.176C282.167 109.176 281.453 108.989 280.844 108.614C280.234 108.239 279.76 107.714 279.423 107.04C279.086 106.366 278.917 105.578 278.917 104.676C278.917 103.771 279.086 102.979 279.423 102.301C279.76 101.623 280.234 101.097 280.844 100.722C281.453 100.347 282.167 100.159 282.986 100.159C283.804 100.159 284.518 100.347 285.128 100.722C285.738 101.097 286.211 101.623 286.548 102.301C286.885 102.979 287.054 103.771 287.054 104.676C287.054 105.578 286.885 106.366 286.548 107.04C286.211 107.714 285.738 108.239 285.128 108.614C284.518 108.989 283.804 109.176 282.986 109.176ZM282.991 107.75C283.522 107.75 283.961 107.61 284.31 107.33C284.658 107.049 284.916 106.676 285.082 106.21C285.253 105.744 285.338 105.231 285.338 104.67C285.338 104.114 285.253 103.602 285.082 103.136C284.916 102.667 284.658 102.29 284.31 102.006C283.961 101.722 283.522 101.58 282.991 101.58C282.457 101.58 282.014 101.722 281.662 102.006C281.313 102.29 281.054 102.667 280.883 103.136C280.717 103.602 280.633 104.114 280.633 104.67C280.633 105.231 280.717 105.744 280.883 106.21C281.054 106.676 281.313 107.049 281.662 107.33C282.014 107.61 282.457 107.75 282.991 107.75ZM294.559 105.381V100.273H296.263V109H294.593V107.489H294.502C294.301 107.955 293.979 108.343 293.536 108.653C293.096 108.96 292.549 109.114 291.894 109.114C291.333 109.114 290.837 108.991 290.405 108.744C289.977 108.494 289.64 108.125 289.394 107.636C289.151 107.148 289.03 106.544 289.03 105.824V100.273H290.729V105.619C290.729 106.214 290.894 106.687 291.223 107.04C291.553 107.392 291.981 107.568 292.507 107.568C292.826 107.568 293.142 107.489 293.456 107.33C293.774 107.17 294.038 106.93 294.246 106.608C294.458 106.286 294.562 105.877 294.559 105.381ZM304.832 109L302.264 100.273H304.02L305.73 106.682H305.815L307.531 100.273H309.287L310.991 106.653H311.077L312.775 100.273H314.531L311.969 109H310.236L308.463 102.699H308.332L306.559 109H304.832ZM318.763 109.193C318.21 109.193 317.71 109.091 317.263 108.886C316.816 108.678 316.462 108.377 316.201 107.983C315.943 107.589 315.814 107.106 315.814 106.534C315.814 106.042 315.909 105.636 316.098 105.318C316.288 105 316.543 104.748 316.865 104.562C317.187 104.377 317.547 104.237 317.945 104.142C318.343 104.047 318.748 103.975 319.161 103.926C319.684 103.866 320.108 103.816 320.434 103.778C320.759 103.737 320.996 103.67 321.144 103.58C321.291 103.489 321.365 103.341 321.365 103.136V103.097C321.365 102.6 321.225 102.216 320.945 101.943C320.668 101.67 320.255 101.534 319.706 101.534C319.134 101.534 318.684 101.661 318.354 101.915C318.028 102.165 317.803 102.443 317.678 102.75L316.081 102.386C316.271 101.856 316.547 101.428 316.911 101.102C317.278 100.773 317.701 100.534 318.178 100.386C318.655 100.235 319.157 100.159 319.684 100.159C320.032 100.159 320.401 100.201 320.791 100.284C321.185 100.364 321.553 100.511 321.894 100.727C322.238 100.943 322.521 101.252 322.74 101.653C322.96 102.051 323.07 102.568 323.07 103.205V109H321.411V107.807H321.343C321.233 108.027 321.068 108.242 320.848 108.455C320.629 108.667 320.346 108.843 320.002 108.983C319.657 109.123 319.244 109.193 318.763 109.193ZM319.132 107.83C319.602 107.83 320.004 107.737 320.337 107.551C320.674 107.366 320.93 107.123 321.104 106.824C321.282 106.521 321.371 106.197 321.371 105.852V104.727C321.31 104.788 321.193 104.845 321.019 104.898C320.848 104.947 320.653 104.991 320.434 105.028C320.214 105.062 320 105.095 319.791 105.125C319.583 105.152 319.409 105.174 319.269 105.193C318.939 105.235 318.638 105.305 318.365 105.403C318.096 105.502 317.88 105.644 317.718 105.83C317.559 106.011 317.479 106.254 317.479 106.557C317.479 106.977 317.634 107.295 317.945 107.511C318.255 107.723 318.651 107.83 319.132 107.83ZM327.112 103.818V109H325.413V100.273H327.043V101.693H327.151C327.352 101.231 327.666 100.86 328.094 100.58C328.526 100.299 329.07 100.159 329.725 100.159C330.32 100.159 330.841 100.284 331.288 100.534C331.735 100.78 332.081 101.148 332.327 101.636C332.574 102.125 332.697 102.729 332.697 103.449V109H330.998V103.653C330.998 103.021 330.833 102.527 330.504 102.17C330.174 101.811 329.721 101.631 329.146 101.631C328.752 101.631 328.401 101.716 328.094 101.886C327.791 102.057 327.551 102.307 327.373 102.636C327.199 102.962 327.112 103.356 327.112 103.818ZM339.129 100.273V101.636H334.362V100.273H339.129ZM335.64 98.1818H337.339V106.438C337.339 106.767 337.388 107.015 337.487 107.182C337.585 107.345 337.712 107.456 337.868 107.517C338.027 107.574 338.199 107.602 338.385 107.602C338.521 107.602 338.64 107.593 338.743 107.574C338.845 107.555 338.924 107.54 338.981 107.528L339.288 108.932C339.19 108.97 339.049 109.008 338.868 109.045C338.686 109.087 338.459 109.11 338.186 109.114C337.739 109.121 337.322 109.042 336.936 108.875C336.549 108.708 336.237 108.451 335.998 108.102C335.76 107.754 335.64 107.316 335.64 106.79V98.1818ZM349.477 100.273V101.636H344.709V100.273H349.477ZM345.988 98.1818H347.687V106.438C347.687 106.767 347.736 107.015 347.834 107.182C347.933 107.345 348.06 107.456 348.215 107.517C348.374 107.574 348.547 107.602 348.732 107.602C348.869 107.602 348.988 107.593 349.09 107.574C349.192 107.555 349.272 107.54 349.329 107.528L349.636 108.932C349.537 108.97 349.397 109.008 349.215 109.045C349.033 109.087 348.806 109.11 348.533 109.114C348.086 109.121 347.67 109.042 347.283 108.875C346.897 108.708 346.584 108.451 346.346 108.102C346.107 107.754 345.988 107.316 345.988 106.79V98.1818ZM355.018 109.176C354.2 109.176 353.486 108.989 352.876 108.614C352.266 108.239 351.793 107.714 351.456 107.04C351.119 106.366 350.95 105.578 350.95 104.676C350.95 103.771 351.119 102.979 351.456 102.301C351.793 101.623 352.266 101.097 352.876 100.722C353.486 100.347 354.2 100.159 355.018 100.159C355.836 100.159 356.55 100.347 357.16 100.722C357.77 101.097 358.244 101.623 358.581 102.301C358.918 102.979 359.086 103.771 359.086 104.676C359.086 105.578 358.918 106.366 358.581 107.04C358.244 107.714 357.77 108.239 357.16 108.614C356.55 108.989 355.836 109.176 355.018 109.176ZM355.024 107.75C355.554 107.75 355.994 107.61 356.342 107.33C356.691 107.049 356.948 106.676 357.115 106.21C357.285 105.744 357.37 105.231 357.37 104.67C357.37 104.114 357.285 103.602 357.115 103.136C356.948 102.667 356.691 102.29 356.342 102.006C355.994 101.722 355.554 101.58 355.024 101.58C354.49 101.58 354.047 101.722 353.694 102.006C353.346 102.29 353.086 102.667 352.916 103.136C352.749 103.602 352.666 104.114 352.666 104.67C352.666 105.231 352.749 105.744 352.916 106.21C353.086 106.676 353.346 107.049 353.694 107.33C354.047 107.61 354.49 107.75 355.024 107.75ZM367.917 109.193C367.364 109.193 366.864 109.091 366.417 108.886C365.97 108.678 365.616 108.377 365.354 107.983C365.097 107.589 364.968 107.106 364.968 106.534C364.968 106.042 365.063 105.636 365.252 105.318C365.441 105 365.697 104.748 366.019 104.562C366.341 104.377 366.701 104.237 367.099 104.142C367.496 104.047 367.902 103.975 368.315 103.926C368.837 103.866 369.262 103.816 369.587 103.778C369.913 103.737 370.15 103.67 370.297 103.58C370.445 103.489 370.519 103.341 370.519 103.136V103.097C370.519 102.6 370.379 102.216 370.099 101.943C369.822 101.67 369.409 101.534 368.86 101.534C368.288 101.534 367.837 101.661 367.508 101.915C367.182 102.165 366.957 102.443 366.832 102.75L365.235 102.386C365.424 101.856 365.701 101.428 366.065 101.102C366.432 100.773 366.854 100.534 367.332 100.386C367.809 100.235 368.311 100.159 368.837 100.159C369.186 100.159 369.555 100.201 369.945 100.284C370.339 100.364 370.707 100.511 371.047 100.727C371.392 100.943 371.674 101.252 371.894 101.653C372.114 102.051 372.224 102.568 372.224 103.205V109H370.565V107.807H370.496C370.387 108.027 370.222 108.242 370.002 108.455C369.782 108.667 369.5 108.843 369.155 108.983C368.811 109.123 368.398 109.193 367.917 109.193ZM368.286 107.83C368.756 107.83 369.157 107.737 369.491 107.551C369.828 107.366 370.083 107.123 370.258 106.824C370.436 106.521 370.525 106.197 370.525 105.852V104.727C370.464 104.788 370.347 104.845 370.172 104.898C370.002 104.947 369.807 104.991 369.587 105.028C369.368 105.062 369.154 105.095 368.945 105.125C368.737 105.152 368.563 105.174 368.422 105.193C368.093 105.235 367.792 105.305 367.519 105.403C367.25 105.502 367.034 105.644 366.871 105.83C366.712 106.011 366.633 106.254 366.633 106.557C366.633 106.977 366.788 107.295 367.099 107.511C367.409 107.723 367.805 107.83 368.286 107.83ZM376.265 103.818V109H374.566V100.273H376.197V101.693H376.305C376.506 101.231 376.82 100.86 377.248 100.58C377.68 100.299 378.224 100.159 378.879 100.159C379.474 100.159 379.994 100.284 380.441 100.534C380.888 100.78 381.235 101.148 381.481 101.636C381.727 102.125 381.851 102.729 381.851 103.449V109H380.152V103.653C380.152 103.021 379.987 102.527 379.657 102.17C379.328 101.811 378.875 101.631 378.299 101.631C377.905 101.631 377.555 101.716 377.248 101.886C376.945 102.057 376.705 102.307 376.527 102.636C376.352 102.962 376.265 103.356 376.265 103.818ZM385.908 103.818V109H384.209V100.273H385.84V101.693H385.948C386.148 101.231 386.463 100.86 386.891 100.58C387.323 100.299 387.866 100.159 388.521 100.159C389.116 100.159 389.637 100.284 390.084 100.534C390.531 100.78 390.877 101.148 391.124 101.636C391.37 102.125 391.493 102.729 391.493 103.449V109H389.794V103.653C389.794 103.021 389.629 102.527 389.3 102.17C388.97 101.811 388.518 101.631 387.942 101.631C387.548 101.631 387.198 101.716 386.891 101.886C386.588 102.057 386.347 102.307 386.169 102.636C385.995 102.962 385.908 103.356 385.908 103.818ZM397.528 109.176C396.709 109.176 395.995 108.989 395.386 108.614C394.776 108.239 394.302 107.714 393.965 107.04C393.628 106.366 393.459 105.578 393.459 104.676C393.459 103.771 393.628 102.979 393.965 102.301C394.302 101.623 394.776 101.097 395.386 100.722C395.995 100.347 396.709 100.159 397.528 100.159C398.346 100.159 399.06 100.347 399.67 100.722C400.279 101.097 400.753 101.623 401.09 102.301C401.427 102.979 401.596 103.771 401.596 104.676C401.596 105.578 401.427 106.366 401.09 107.04C400.753 107.714 400.279 108.239 399.67 108.614C399.06 108.989 398.346 109.176 397.528 109.176ZM397.533 107.75C398.064 107.75 398.503 107.61 398.851 107.33C399.2 107.049 399.457 106.676 399.624 106.21C399.795 105.744 399.88 105.231 399.88 104.67C399.88 104.114 399.795 103.602 399.624 103.136C399.457 102.667 399.2 102.29 398.851 102.006C398.503 101.722 398.064 101.58 397.533 101.58C396.999 101.58 396.556 101.722 396.204 102.006C395.855 102.29 395.596 102.667 395.425 103.136C395.259 103.602 395.175 104.114 395.175 104.67C395.175 105.231 395.259 105.744 395.425 106.21C395.596 106.676 395.855 107.049 396.204 107.33C396.556 107.61 396.999 107.75 397.533 107.75ZM407.646 100.273V101.636H402.879V100.273H407.646ZM404.157 98.1818H405.856V106.438C405.856 106.767 405.905 107.015 406.004 107.182C406.102 107.345 406.229 107.456 406.385 107.517C406.544 107.574 406.716 107.602 406.902 107.602C407.038 107.602 407.157 107.593 407.26 107.574C407.362 107.555 407.441 107.54 407.498 107.528L407.805 108.932C407.707 108.97 407.566 109.008 407.385 109.045C407.203 109.087 406.975 109.11 406.703 109.114C406.256 109.121 405.839 109.042 405.453 108.875C405.066 108.708 404.754 108.451 404.515 108.102C404.277 107.754 404.157 107.316 404.157 106.79V98.1818ZM412.145 109.193C411.592 109.193 411.092 109.091 410.645 108.886C410.198 108.678 409.844 108.377 409.582 107.983C409.325 107.589 409.196 107.106 409.196 106.534C409.196 106.042 409.291 105.636 409.48 105.318C409.67 105 409.925 104.748 410.247 104.562C410.569 104.377 410.929 104.237 411.327 104.142C411.724 104.047 412.13 103.975 412.543 103.926C413.065 103.866 413.49 103.816 413.815 103.778C414.141 103.737 414.378 103.67 414.526 103.58C414.673 103.489 414.747 103.341 414.747 103.136V103.097C414.747 102.6 414.607 102.216 414.327 101.943C414.05 101.67 413.637 101.534 413.088 101.534C412.516 101.534 412.065 101.661 411.736 101.915C411.41 102.165 411.185 102.443 411.06 102.75L409.463 102.386C409.653 101.856 409.929 101.428 410.293 101.102C410.66 100.773 411.082 100.534 411.56 100.386C412.037 100.235 412.539 100.159 413.065 100.159C413.414 100.159 413.783 100.201 414.173 100.284C414.567 100.364 414.935 100.511 415.276 100.727C415.62 100.943 415.903 101.252 416.122 101.653C416.342 102.051 416.452 102.568 416.452 103.205V109H414.793V107.807H414.724C414.615 108.027 414.45 108.242 414.23 108.455C414.01 108.667 413.728 108.843 413.384 108.983C413.039 109.123 412.626 109.193 412.145 109.193ZM412.514 107.83C412.984 107.83 413.385 107.737 413.719 107.551C414.056 107.366 414.312 107.123 414.486 106.824C414.664 106.521 414.753 106.197 414.753 105.852V104.727C414.692 104.788 414.575 104.845 414.401 104.898C414.23 104.947 414.035 104.991 413.815 105.028C413.596 105.062 413.382 105.095 413.173 105.125C412.965 105.152 412.791 105.174 412.651 105.193C412.321 105.235 412.02 105.305 411.747 105.403C411.478 105.502 411.262 105.644 411.099 105.83C410.94 106.011 410.861 106.254 410.861 106.557C410.861 106.977 411.016 107.295 411.327 107.511C411.637 107.723 412.033 107.83 412.514 107.83ZM422.868 100.273V101.636H418.101V100.273H422.868ZM419.38 98.1818H421.079V106.438C421.079 106.767 421.128 107.015 421.226 107.182C421.325 107.345 421.452 107.456 421.607 107.517C421.766 107.574 421.938 107.602 422.124 107.602C422.26 107.602 422.38 107.593 422.482 107.574C422.584 107.555 422.664 107.54 422.721 107.528L423.027 108.932C422.929 108.97 422.789 109.008 422.607 109.045C422.425 109.087 422.198 109.11 421.925 109.114C421.478 109.121 421.062 109.042 420.675 108.875C420.289 108.708 419.976 108.451 419.738 108.102C419.499 107.754 419.38 107.316 419.38 106.79V98.1818ZM428.495 109.176C427.635 109.176 426.895 108.992 426.274 108.625C425.656 108.254 425.179 107.733 424.842 107.062C424.509 106.388 424.342 105.598 424.342 104.693C424.342 103.799 424.509 103.011 424.842 102.33C425.179 101.648 425.649 101.116 426.251 100.733C426.857 100.35 427.565 100.159 428.376 100.159C428.868 100.159 429.346 100.241 429.808 100.403C430.27 100.566 430.685 100.822 431.052 101.17C431.42 101.519 431.709 101.972 431.921 102.528C432.134 103.081 432.24 103.754 432.24 104.545V105.148H425.302V103.875H430.575C430.575 103.428 430.484 103.032 430.302 102.688C430.12 102.339 429.865 102.064 429.535 101.864C429.209 101.663 428.827 101.562 428.387 101.562C427.91 101.562 427.493 101.68 427.137 101.915C426.785 102.146 426.512 102.449 426.319 102.824C426.13 103.195 426.035 103.598 426.035 104.034V105.028C426.035 105.612 426.137 106.108 426.342 106.517C426.55 106.926 426.84 107.239 427.211 107.455C427.582 107.667 428.016 107.773 428.512 107.773C428.834 107.773 429.128 107.727 429.393 107.636C429.658 107.542 429.887 107.402 430.081 107.216C430.274 107.03 430.421 106.801 430.524 106.528L432.132 106.818C432.003 107.292 431.772 107.706 431.438 108.062C431.109 108.415 430.694 108.689 430.194 108.886C429.698 109.08 429.132 109.176 428.495 109.176Z" fill="#6B7280"/>
<g filter="url(#filter0_f_5_313)">
<path opacity="0.8" d="M62 1L233 133" stroke="url(#paint0_radial_5_313)" stroke-width="40" stroke-linecap="round"/>
<path opacity="0.8" d="M620 54L791 186" stroke="url(#paint1_radial_5_313)" stroke-width="40" stroke-linecap="round"/>
<path opacity="0.8" d="M282.084 209.523L467.988 249.102C475.745 250.754 478.585 260.346 472.977 265.954L328.752 410.18C323.186 415.746 313.669 412.997 311.928 405.32L270.25 221.515C268.635 214.396 274.945 208.003 282.084 209.523Z" fill="url(#paint2_radial_5_313)" fill-opacity="0.5"/>
<path opacity="0.8" d="M432.084 -0.47723L617.988 39.1023C625.745 40.7538 628.585 50.3461 622.977 55.9542L478.752 200.18C473.186 205.746 463.669 202.997 461.928 195.32L420.25 11.515C418.635 4.39627 424.945 -1.99724 432.084 -0.47723Z" fill="url(#paint3_radial_5_313)" fill-opacity="0.5"/>
<path opacity="0.8" d="M433 31L507 89" stroke="#AE4B4B" stroke-width="40" stroke-linecap="round"/>
</g>
</g>
<path d="M24 0.5H684C696.979 0.5 707.5 11.0213 707.5 24V129C707.5 141.979 696.979 152.5 684 152.5H24C11.0213 152.5 0.5 141.979 0.5 129V24L0.507812 23.3936C0.829477 10.6951 11.2241 0.5 24 0.5Z" stroke="#E5E7EB"/>
<defs>
<filter id="filter0_f_5_313" x="-100" y="-120" width="1125" height="720" filterUnits="userSpaceOnUse" color-interpolation-filters="sRGB">
<feFlood flood-opacity="0" result="BackgroundImageFix"/>
<feBlend mode="normal" in="SourceGraphic" in2="BackgroundImageFix" result="shape"/>
<feGaussianBlur stdDeviation="50" result="effect1_foregroundBlur_5_313"/>
</filter>
<radialGradient id="paint0_radial_5_313" cx="0" cy="0" r="1" gradientUnits="userSpaceOnUse" gradientTransform="translate(147.5 67) rotate(90) scale(66 85.5)">
<stop stop-color="#C084FC"/>
<stop offset="1" stop-color="#76D8F9" stop-opacity="0"/>
</radialGradient>
<radialGradient id="paint1_radial_5_313" cx="0" cy="0" r="1" gradientUnits="userSpaceOnUse" gradientTransform="translate(744.274 120.029) rotate(63.103) scale(97.0408 120.216)">
<stop stop-color="#93C5FD"/>
<stop offset="1" stop-color="#B294FC" stop-opacity="0"/>
</radialGradient>
<radialGradient id="paint2_radial_5_313" cx="0" cy="0" r="1" gradientUnits="userSpaceOnUse" gradientTransform="translate(481.889 233.817) rotate(-179.419) scale(151.553 178.937)">
<stop stop-color="#67E8F9"/>
<stop offset="1" stop-color="#C084FC"/>
</radialGradient>
<radialGradient id="paint3_radial_5_313" cx="0" cy="0" r="1" gradientUnits="userSpaceOnUse" gradientTransform="translate(631.889 23.8166) rotate(-179.419) scale(151.553 178.937)">
<stop stop-color="#67E8F9"/>
<stop offset="1" stop-color="#C084FC"/>
</radialGradient>
<clipPath id="clip0_5_313">
<path d="M0 24C0 10.7452 10.7452 0 24 0H684C697.255 0 708 10.7452 708 24V129C708 142.255 697.255 153 684 153H24C10.7452 153 0 142.255 0 129V24Z" fill="white"/>
</clipPath>
<clipPath id="clip1_5_313">
<rect width="12" height="12" fill="white" transform="translate(296 56)"/>
</clipPath>
</defs>
</svg>
